# xmcd
#
# Track frame offsets: 
#        150
#        12699
#        27110
#        38762
#        49391
#        62278
#        72615
#        84848
#        98645
#        108245
#        121835
#        135980
#        150007
#        162741
#        174377
#        190743
#        203220
#        214469
#        225610
#        238263
#        250221
#        261909
#        272646
#        284888
#
# Disc length: 3945 seconds
#
# Revision: 1
# Processed by: cddbd v1.5.2PL0 Copyright (c) Steve Scherf et al.
# Submitted via: ExactAudioCopy v0.99pb2
#
DISCID=550f6718
DTITLE=Various Artist - The Complete Motown Singles Volume 8 [CD39)
DYEAR=1968
DGENRE=R&B/Soul
TTITLE0=Stevie Wonder - Shoo-Be-Doo-Be-Doo-Da-Day
TTITLE1=Stevie Wonder - Why Don't You Lead Me To Love
TTITLE2=Edwin Starr - I Am The Man For You Baby
TTITLE3=Edwin Starr - My Weakness Is You
TTITLE4=Barbara McNair - Where Would I Be WIthout You
TTITLE5=Marvin Gaye and Tammi Terrell - Ain't Nothing Like The Real Thin
TTITLE5=g
TTITLE6=Marvin Gaye and Tammi Terrell - Little Ole Boy, Little Ole Girl
TTITLE7=The Monitors - Bring Back The Love
TTITLE8=Martha Reeves and The Vandellas - I Promise To Wait My Love
TTITLE9=Martha Reeves and The Vandellas - Forget Me Not
TTITLE10=R. Dean Taylor - Gotta See Jane
TTITLE11=R. Dean Taylor - Gotta See Jane (Second Pressing)
TTITLE12=Four Tops - If I Were A Carpenter
TTITLE13=Four Tops - Wonderful Baby
TTITLE14=The Temptations - I Could Never Love Another (After Loving Yo
TTITLE14=u)
TTITLE15=The Temptations - Gonna Give Her All The Love I've Got
TTITLE16=The Detroit Wheels - Linda Sue Dixon
TTITLE17=The Detroit Wheels - Tally Ho
TTITLE18=The Marvelettes - Here I Am Baby
TTITLE19=The Marvelettes - Keep Off, No Trespassing
TTITLE20=Shorty Long - Here Comes The Judge
TTITLE21=Shorty Long - Sing What You Wanna
TTITLE22=The Volumes - Ain't That Lovin' You
TTITLE23=The Volumes - I Love You Baby
EXTD=
EXTT0=
EXTT1=
EXTT2=
EXTT3=
EXTT4=
EXTT5=
EXTT6=
EXTT7=
EXTT8=
EXTT9=
EXTT10=
EXTT11=
EXTT12=
EXTT13=
EXTT14=
EXTT15=
EXTT16=
EXTT17=
EXTT18=
EXTT19=
EXTT20=
EXTT21=
EXTT22=
EXTT23=
PLAYORDER=
